<svg width="1346" height="593" viewBox="0 0 1346 593" fill="none" xmlns="http://www.w3.org/2000/svg">
<g filter="url(#filter0_dd_12_4)">
<path d="M1051.16 570.115C1048.47 569.89 1048.18 569.778 1048.18 568.542C1048.18 567.139 1048.63 566.97 1056.05 566.296C1085.08 563.489 1122.42 552.034 1149.82 537.49C1177.05 523.115 1199.4 506.045 1221.3 483.022L1226.24 477.856H1243.31C1258.87 477.856 1260.44 477.969 1260.44 478.811C1260.44 479.766 1238.99 501.609 1235 504.641C1233.71 505.652 1231.92 507.168 1230.96 508.01C1230.06 508.853 1227.14 511.211 1224.5 513.232C1221.86 515.198 1219.62 516.995 1219.45 517.163C1219.28 517.332 1217.54 518.567 1215.52 519.971C1213.5 521.318 1211.81 522.666 1211.7 522.891C1211.59 523.115 1211.19 523.34 1210.8 523.34C1210.41 523.34 1209.62 523.789 1209 524.351C1208.44 524.856 1207.26 525.642 1206.42 526.091C1205.52 526.541 1204.85 527.102 1204.85 527.383C1204.85 527.607 1204.57 527.832 1204.23 527.832C1203.9 527.832 1202.55 528.618 1201.2 529.517C1199.85 530.471 1198.56 531.201 1198.39 531.201C1198.17 531.201 1197.33 531.65 1196.54 532.268C1194.91 533.391 1191.88 535.132 1186.88 537.715C1185.2 538.613 1183.68 539.456 1183.51 539.624C1183.23 539.905 1181.49 540.747 1173.97 544.285C1163.35 549.226 1160.55 550.405 1156 551.978C1153.64 552.82 1151.56 553.606 1150.27 554.28C1149.71 554.561 1148.75 554.785 1148.19 554.785C1147.57 554.785 1146.9 555.066 1146.73 555.347C1146.56 555.684 1145.78 555.908 1145.05 555.908C1144.32 555.908 1143.53 556.189 1143.36 556.47C1143.19 556.807 1142.41 557.031 1141.68 557.031C1140.95 557.031 1140.22 557.256 1140.05 557.537C1139.88 557.817 1139.04 558.154 1138.2 558.323C1137.3 558.491 1135.73 558.884 1134.66 559.221C1131.29 560.176 1128.26 561.018 1126.12 561.58C1120.17 563.04 1119.05 563.32 1116.69 563.826C1111.08 565.061 1108.16 565.623 1098.61 567.139C1086.93 569.048 1058.97 570.789 1051.16 570.115Z" fill="#273FAF"/>
<path d="M905.726 521.824C905.333 521.711 904.996 520.813 904.996 519.915C904.996 518.455 905.165 518.286 906.961 518.286C908.814 518.286 908.927 518.398 908.927 520.251C908.927 521.936 908.758 522.217 907.691 522.161C906.961 522.161 906.063 521.992 905.726 521.824Z" fill="#273FAF"/>
<path d="M1300.98 413.674C1300.42 413.057 1299.75 410.754 1296.83 399.805C1296.27 397.502 1295.54 394.863 1295.25 393.909C1294.97 393.01 1294.02 389.304 1293.06 385.767C1292.17 382.229 1290.99 377.849 1290.54 376.108C1288.63 369.089 1288.01 366.843 1287.39 364.766C1286.61 362.126 1286.78 360.161 1288.74 350.784C1296.04 315.239 1294.92 276.27 1285.43 237.749C1282.51 225.901 1282.34 224.329 1284.19 223.767C1286.61 223.037 1289.36 222.307 1291.32 221.802C1293.23 221.353 1297.39 220.229 1306.37 217.815C1313.45 215.906 1313.45 215.906 1314.23 217.59C1314.63 218.376 1314.91 219.443 1314.91 219.893C1314.91 220.342 1315.13 221.128 1315.41 221.689C1315.69 222.195 1316.26 223.767 1316.59 225.171C1317.94 229.944 1318.45 231.628 1318.9 232.92C1319.18 233.65 1319.4 234.941 1319.4 235.84C1319.4 236.738 1319.63 237.581 1319.91 237.749C1320.19 237.917 1320.52 239.041 1320.69 240.164C1320.86 241.343 1321.31 243.589 1321.65 245.105C1322.99 251.169 1323.33 253.135 1325.02 263.916C1328.1 283.625 1328.1 318.44 1325.02 339.16C1324.17 344.832 1323.44 349.268 1322.83 352.356C1322.49 353.928 1321.98 356.455 1321.7 357.971C1321.2 360.61 1320.8 362.295 1319.4 367.686C1319.12 368.809 1318.73 370.549 1318.56 371.448C1318.33 372.402 1318 373.638 1317.72 374.255C1317.49 374.873 1316.99 376.501 1316.59 377.905C1316.2 379.309 1315.69 380.937 1315.47 381.555C1315.25 382.173 1314.68 383.801 1314.29 385.205C1313.9 386.609 1313.39 387.957 1313.11 388.237C1312.89 388.574 1312.66 389.304 1312.66 389.978C1312.66 390.652 1312.44 391.382 1312.21 391.719C1311.99 392 1311.43 393.235 1311.03 394.47C1310.64 395.706 1310.08 397.334 1309.74 398.12C1309.41 398.906 1308.9 400.085 1308.68 400.815C1307.38 404.072 1307.1 404.746 1306.04 407.104C1305.42 408.508 1304.46 410.698 1303.9 412.046C1302.89 414.46 1302.05 414.966 1300.98 413.674Z" fill="#273FAF"/>
<path d="M847.665 136.563C847.945 136.057 848.731 135.103 849.349 134.541C850.528 133.474 850.528 133.474 850.528 135.496C850.528 137.405 850.416 137.573 848.844 137.573C847.384 137.573 847.215 137.405 847.665 136.563Z" fill="#273FAF"/>
<path d="M853.897 128.87C854.964 127.803 855.863 126.904 855.975 126.904C856.087 126.904 856.144 127.803 856.144 128.87C856.144 130.779 856.087 130.835 854.066 130.835H851.988L853.897 128.87Z" fill="#273FAF"/>
<path d="M864.342 117.358C867.374 114.214 870.069 111.35 870.35 110.901C871.08 109.497 871.866 109.946 871.866 111.799C871.866 113.203 871.024 114.382 867.149 118.257C863.163 122.244 862.208 122.974 860.636 122.974C858.783 122.974 858.839 122.974 864.342 117.358Z" fill="#273FAF"/>
<path d="M1017.3 93.4937C1017.3 91.6406 1017.41 91.5283 1019.27 91.5283C1021.12 91.5283 1021.23 91.6406 1021.23 93.4937C1021.23 95.3467 1021.12 95.459 1019.27 95.459C1017.41 95.459 1017.3 95.3467 1017.3 93.4937Z" fill="#273FAF"/>
<path d="M1160.77 71.8189C1136.06 57.2754 1106.81 46.1011 1078.51 40.4297C1073.45 39.4189 1058.85 37.0605 1057.62 37.0605C1057.34 37.0605 1057.17 36.0498 1057.17 34.8145V32.5684L1060.15 32.8491C1061.72 33.0176 1068.01 33.4106 1074.01 33.7476C1089.12 34.4775 1100.35 35.8252 1111.36 38.2397C1112.93 38.5205 1115.17 38.9697 1116.41 39.1382C1117.65 39.3066 1118.88 39.6436 1119.22 39.9243C1119.5 40.2051 1120.56 40.4297 1121.52 40.4297C1122.53 40.4297 1123.54 40.7104 1123.71 40.9912C1123.88 41.3281 1124.89 41.5527 1125.96 41.5527C1127.02 41.5527 1128.03 41.7773 1128.2 42.1143C1128.37 42.4512 1129.1 42.6758 1129.72 42.6758C1131.01 42.6758 1134.27 43.6304 1135.89 44.4165C1136.46 44.6973 1137.52 44.9219 1138.25 44.9219C1139.04 44.9219 1139.83 45.2026 1139.99 45.4834C1140.16 45.8203 1140.95 46.0449 1141.68 46.0449C1142.41 46.0449 1143.19 46.2695 1143.36 46.6064C1143.53 46.9434 1144.32 47.168 1145.05 47.168C1145.78 47.168 1146.56 47.4487 1146.73 47.7295C1146.9 48.0664 1147.57 48.291 1148.19 48.291C1148.75 48.291 1149.71 48.5156 1150.27 48.7964C1151.34 49.3579 1154.71 50.7056 1158.41 52.1655C1159.09 52.3901 1160.32 52.8955 1161.22 53.2886C1162.06 53.6255 1163.3 54.1309 1164.03 54.4116C1168.18 56.0962 1182.61 63.0591 1188.85 66.4844C1194.07 69.292 1193.68 70.1343 1186.04 72.2119C1184.19 72.7173 1181.77 73.335 1180.7 73.6719C1175.65 75.0757 1174.02 75.4126 1170.88 75.5811C1167.56 75.8057 1167.4 75.7495 1160.77 71.8189Z" fill="#273FAF"/>
<path d="M1042.01 60.9253C1042.01 59.0723 1042.12 58.96 1043.97 58.96C1045.83 58.96 1045.94 59.0723 1045.94 60.9253C1045.94 62.7783 1045.83 62.8906 1043.97 62.8906C1042.12 62.8906 1042.01 62.7783 1042.01 60.9253Z" fill="#273FAF"/>
<path d="M1050.99 45.2026C1050.99 43.3496 1051.1 43.2373 1052.96 43.2373C1054.81 43.2373 1054.92 43.3496 1054.92 45.2026C1054.92 47.0557 1054.81 47.168 1052.96 47.168C1051.1 47.168 1050.99 47.0557 1050.99 45.2026Z" fill="#273FAF"/>
<path d="M1043.97 569.609C1035.1 569.216 1020.89 567.419 1010 565.398C1007.14 564.836 1005.96 564.612 999.332 563.152C995.682 562.31 988.663 560.513 986.417 559.839C985.631 559.614 983.104 558.828 980.802 558.154C972.997 555.852 962.44 552.034 954.972 548.777C953.905 548.328 952.501 547.71 951.883 547.485C950.086 546.755 931.219 537.49 929.703 536.536C928.917 536.086 925.716 534.233 922.628 532.38C916.058 528.562 905.445 521.655 904.884 520.813C904.659 520.532 904.435 518.623 904.435 516.602C904.435 514.58 904.154 511.323 903.817 509.302C903.48 507.28 903.199 501.104 903.199 495.544C903.143 487.571 903.312 484.595 904.098 481.506C906.568 471.904 910.611 464.548 917.069 457.922C923.976 450.847 929.479 447.59 940.484 443.94C948.065 441.47 952.782 438.494 957.723 433.103C961.766 428.723 963.956 425.017 965.921 419.177L967.044 415.808H1007.47C1045.6 415.808 1048.07 415.752 1050.71 414.741C1059.02 411.653 1065.03 403.735 1065.03 395.818C1065.03 389.192 1059.75 381.162 1053.41 378.186C1049.7 376.389 1045.77 375.659 1040.21 375.659H1034.71V374.143C1034.6 368.977 1030.83 359.937 1026.85 355.332C1024.1 352.131 1018.2 348.145 1013.65 346.46C1008.77 344.607 1001.47 344.607 996.524 346.404C985.238 350.503 975.804 362.632 975.748 372.908C975.748 374.031 975.411 375.21 975.074 375.491C974.681 375.771 970.863 376.052 966.651 376.108L958.958 376.221L957.723 374.143C952.838 366.282 945.482 360.498 936.554 357.578C932.118 356.118 923.47 355.894 919.876 357.185C916.507 358.308 904.94 358.14 901.346 356.904C894.271 354.434 888.207 349.155 885.118 342.81C883.434 339.385 881.974 333.152 881.974 329.333C881.974 325.515 883.434 319.282 885.118 315.801C887.308 311.252 893.036 305.581 897.696 303.335C901.009 301.763 925.267 294.968 944.303 290.308C946.549 289.746 954.354 287.668 957.105 286.882C958.06 286.602 959.745 286.152 960.755 285.872C967.437 284.075 973.39 280.425 979.229 274.529C983.216 270.486 984.564 268.633 986.698 264.365C990.011 257.571 991.021 253.64 991.021 247.07C991.021 234.773 985.35 223.599 974.793 215.232C971.705 212.817 964.461 209.055 961.261 208.213C954.466 206.416 947.223 206.416 940.934 208.157C935.375 209.673 933.409 210.066 928.019 210.627C922.235 211.245 910.611 210.852 906.961 209.954C897.921 207.651 889.835 204.058 883.265 199.341C880.008 196.982 879.784 196.646 879.728 194.68C879.728 193.501 880.008 192.041 880.345 191.423C880.626 190.806 880.907 188.672 880.907 186.707C880.907 182.214 878.661 177.048 875.011 173.342C870.406 168.625 865.296 166.772 856.593 166.772H850.528V164.807C850.528 159.978 847.159 151.555 843.565 147.288C842.049 145.603 841.544 144.48 841.6 143.076C841.6 142.065 841.769 141.56 841.937 141.953C842.386 143.132 843.116 142.739 844.857 140.269C845.755 138.921 846.935 137.349 847.552 136.731C848.114 136.113 849.686 134.148 851.034 132.351C852.381 130.61 853.617 129.15 853.841 129.15C854.066 129.15 854.627 128.477 855.133 127.634C855.638 126.736 859.232 122.861 863.106 118.931C866.981 115 870.182 111.575 870.182 111.238C870.182 110.901 870.631 110.452 871.192 110.171C871.922 109.778 873.888 110.62 879.391 113.765C891.07 120.391 898.202 122.974 908.534 124.097C917.069 125.107 919.483 124.602 952.726 115.73C964.293 112.642 975.804 109.609 978.275 109.048C991.246 105.791 995.907 104.219 1002.87 100.737C1010.06 97.1997 1015.67 93.1006 1022.13 86.9238C1029.43 79.8486 1032.41 75.6372 1042.4 58.2861C1046.89 50.481 1050.82 43.9673 1051.05 43.9111C1051.33 43.7988 1051.55 43.4619 1051.55 43.125C1051.55 42.7881 1052.85 40.2612 1054.42 37.5659C1056.5 33.8599 1057.56 32.5684 1058.4 32.5684C1059.36 32.5684 1059.47 32.793 1059.19 33.9722C1058.97 34.7583 1059.02 35.376 1059.25 35.376C1060.54 35.376 1075.14 37.7344 1080.19 38.7451C1108.38 44.4165 1136.29 54.9731 1161.78 69.7412C1167.85 73.2788 1169.87 74.1772 1171.05 73.9526C1172.9 73.5596 1176.38 72.7173 1179.02 71.9873C1180.09 71.6504 1182.5 71.0327 1184.35 70.5273C1188.96 69.292 1190.87 68.4497 1190.47 67.8882C1190.03 67.1582 1190.92 67.3267 1192.1 68.1689C1193.9 69.5166 1193.28 70.5273 1190.03 71.3696C1184.41 72.7734 1176.38 74.9634 1167.79 77.3779C1164.53 78.2764 1157.85 80.1294 1152.91 81.4209C1126.69 88.3276 1119.27 90.5176 1114.84 92.7637C1099.28 100.4 1089.01 116.123 1088.95 132.239C1088.95 139.202 1090.07 143.975 1093.44 150.825C1098.05 160.259 1105.01 167.109 1114.73 171.826C1124.33 176.487 1132.97 177.554 1142.69 175.251C1148.75 173.792 1158.97 173.679 1164.42 174.971C1170.93 176.487 1175.93 179.407 1181.27 184.741C1188 191.423 1189.35 194.456 1194.29 213.604C1195.87 219.836 1195.98 220.903 1195.75 227.361C1195.53 232.976 1195.19 235.166 1194.18 237.805C1190.31 247.969 1182.61 254.763 1171.72 257.683C1169.42 258.301 1162.74 260.098 1156.84 261.67C1151 263.242 1144.26 265.039 1141.96 265.657C1130.78 268.689 1122.47 276.27 1118.82 286.826C1116.47 293.733 1116.86 296.877 1122.53 317.822C1125.23 327.817 1127.92 337.419 1128.54 339.16C1129.94 343.147 1134.1 349.268 1137.41 352.131C1141.06 355.276 1148.14 358.645 1152.96 359.431C1156.61 360.105 1157.57 360.049 1163.63 358.757C1169.19 357.634 1171.83 357.41 1179.3 357.466C1189.69 357.522 1194.18 358.477 1201.99 362.183C1212.82 367.405 1217.88 372.458 1229.44 389.81C1236.91 400.984 1237.98 402.893 1237.98 404.858C1237.98 406.88 1237.81 407.104 1236.58 407.104C1234.5 407.104 1229.05 409.294 1225.68 411.484C1217.6 416.819 1212.32 425.242 1211.25 434.507L1210.91 437.876L1203.5 438.101C1196.48 438.269 1195.92 438.381 1192.44 440.066C1185.59 443.435 1180.59 450.903 1180.59 457.642C1180.59 464.38 1185.59 471.848 1192.44 475.217L1196.15 477.014L1224.62 477.183C1252.52 477.351 1253.14 477.351 1253.14 478.418C1253.14 479.485 1252.69 479.541 1240.51 479.541H1227.93L1222.99 484.707C1197.38 511.66 1169.36 531.707 1137.47 545.969C1111.52 557.537 1084.91 564.893 1057.45 567.981C1053.46 568.43 1050.09 569.048 1049.98 569.385C1049.87 569.666 1049.25 569.89 1048.58 569.834C1047.9 569.778 1045.83 569.666 1043.97 569.609Z" fill="#2F4BC6"/>
<path d="M1237.7 501.44C1239.21 499.924 1240.56 498.633 1240.73 498.633C1240.9 498.633 1239.78 499.924 1238.26 501.44C1236.74 503.013 1235.4 504.248 1235.23 504.248C1235.06 504.248 1236.18 503.013 1237.7 501.44Z" fill="#2F4BC6"/>
<path d="M1257.52 481.731C1259.04 479.99 1259.09 479.541 1257.63 479.541C1256.9 479.541 1256.62 479.26 1256.85 478.699C1257.24 477.744 1261 477.52 1261 478.474C1261 479.092 1260.67 479.429 1257.91 481.787L1256.23 483.191L1257.52 481.731Z" fill="#2F4BC6"/>
<path d="M1300.59 414.011C1299.86 412.214 1297.95 404.634 1297.67 402.5C1297.44 400.872 1297.56 400.366 1298.23 400.366C1299.13 400.366 1299.07 400.31 1300.87 406.824C1301.54 409.294 1302.44 411.709 1302.84 412.158C1303.4 412.776 1303.45 413.281 1303.06 414.011C1302.33 415.247 1301.09 415.247 1300.59 414.011Z" fill="#2F4BC6"/>
<path d="M1296.15 398.289C1294.97 392.505 1294.52 389.641 1294.86 389.304C1295.48 388.687 1296.43 389.922 1296.94 392C1297.22 393.066 1297.78 395.256 1298.23 396.885C1299.02 399.749 1299.02 399.805 1297.78 399.805C1296.83 399.805 1296.43 399.412 1296.15 398.289Z" fill="#2F4BC6"/>
<path d="M1292.33 383.689C1291.83 381.555 1291.04 378.411 1290.54 376.614C1290.03 374.817 1289.64 372.739 1289.64 372.009C1289.64 371.223 1289.42 370.605 1289.13 370.605C1288.85 370.605 1288.52 369.932 1288.35 369.089C1288.18 368.191 1286.78 362.969 1285.26 357.41C1283.69 351.851 1281.78 344.888 1280.99 341.968C1280.21 339.048 1276.84 326.301 1273.41 313.611C1270.04 300.977 1266.5 287.668 1265.55 284.131C1264.6 280.593 1262.97 274.753 1261.96 271.216C1260.33 265.32 1260.16 264.028 1260.16 256.897C1260.16 250.159 1260.33 248.53 1261.45 245.386C1265.83 232.695 1276.28 224.048 1289.02 222.532C1291.04 222.307 1291.89 222.419 1291.89 222.869C1291.89 223.542 1290.82 224.048 1286.94 225.227C1284.87 225.845 1284.59 226.125 1284.87 227.08C1286.33 232.19 1289.86 247.632 1290.99 253.809C1294.19 271.16 1294.92 280.593 1294.92 301.819C1294.92 318.665 1294.75 322.932 1293.68 331.804C1292.39 342.417 1290.09 355.95 1289.02 359.263C1288.57 360.667 1288.63 361.79 1289.3 364.036C1289.75 365.608 1290.71 368.865 1291.32 371.167C1291.94 373.469 1292.73 376.277 1293.01 377.344C1293.35 378.411 1294.02 381.162 1294.64 383.408L1295.65 387.451H1294.47C1293.46 387.451 1293.12 386.89 1292.33 383.689Z" fill="#2F4BC6"/>
<path d="M1292.45 222.419C1292.45 221.633 1292.9 221.184 1294.02 220.903C1294.86 220.735 1295.93 220.454 1296.38 220.286C1296.83 220.117 1298.12 219.78 1299.19 219.556C1303.12 218.657 1309.63 216.86 1311.15 216.243C1313.34 215.4 1313.45 215.4 1314.18 217.366C1314.74 218.826 1314.74 218.994 1314.07 218.433C1313.62 218.04 1313 217.927 1312.66 218.152C1312.33 218.376 1310.14 219.05 1307.83 219.612C1305.53 220.173 1301.71 221.184 1299.35 221.858C1292.11 223.767 1292.45 223.767 1292.45 222.419Z" fill="#2F4BC6"/>
<path d="M905.333 521.543C904.771 521.206 903.873 520.645 903.368 520.195C902.862 519.802 900.223 517.781 897.416 515.703C886.859 507.842 875.235 497.51 876.976 497.51C877.706 497.51 877.931 496.611 878.211 493.298C878.941 484.707 883.827 473.645 890.228 466.233C896.068 459.326 904.098 454.16 913.98 450.903C923.021 447.871 926.109 446.074 931.444 440.796C937.34 434.956 940.428 429.285 941.888 421.536C943.067 415.584 942.787 413.73 938.688 398.401C935.318 385.598 932.848 380.208 928.075 374.985C922.235 368.64 915.609 364.99 907.13 363.53C903.143 362.856 902.132 362.856 896.405 363.867C881.637 366.45 873.158 364.541 865.353 356.848C859.625 351.177 857.267 344.944 857.267 335.566C857.267 324.504 862.657 315.127 871.698 310.354C875.909 308.164 893.934 303.223 897.752 303.223C900.785 303.223 900.56 304.233 897.079 306.311C893.148 308.613 888.656 313.611 886.634 317.878C881.861 328.042 883.658 339.272 891.407 347.695C894.72 351.289 897.64 353.198 902.301 354.939C905.951 356.343 914.767 356.624 918.192 355.444C921.561 354.265 933.634 354.434 937.564 355.613C945.313 358.027 952.22 362.8 956.769 368.921C958.285 370.942 960.025 373.188 960.587 373.862C961.205 374.592 961.71 375.378 961.71 375.659C961.71 375.884 960.475 376.558 958.902 377.119C950.367 380.208 944.359 388.911 944.977 397.222C945.763 406.768 953.624 414.292 964.349 415.64C967.044 415.977 969.403 416.37 969.515 416.426C969.627 416.538 969.459 416.931 969.122 417.38C968.785 417.773 968.111 419.346 967.606 420.862C965.921 426.14 963.226 430.632 959.408 434.844C954.466 440.178 949.75 443.154 942.169 445.625C931.163 449.275 925.66 452.532 918.753 459.607C913.98 464.436 910.611 469.602 908.253 475.61C905.445 482.742 904.94 485.886 904.94 495.994C904.94 501.216 905.108 505.652 905.277 505.933C905.558 506.382 906.737 521.768 906.512 521.992C906.456 522.048 905.895 521.88 905.333 521.543Z" fill="#67C745"/>
<path d="M868.553 490.435L865.521 487.122L867.093 486.953C869.452 486.672 872.035 489.368 871.754 491.895L871.585 493.804L868.553 490.435Z" fill="#67C745"/>
<path d="M1284.59 438.213C1283.13 437.764 1279.7 437.427 1276.33 437.427C1270.83 437.427 1270.55 437.371 1270.55 436.248C1270.55 435.125 1270.15 433.44 1268.69 428.162C1268.36 426.926 1267.52 424.792 1266.79 423.389C1265.55 420.974 1265.04 417.212 1265.94 417.212C1267.01 417.212 1274.93 399.131 1278.8 387.732C1279.81 384.644 1281.72 378.691 1282.9 374.536C1284.14 370.381 1285.54 365.608 1285.99 364.036C1286.5 362.351 1287.23 361.06 1287.62 361.06C1288.07 361.06 1288.69 362.126 1289.02 363.474C1289.42 364.766 1289.92 366.619 1290.2 367.517C1290.65 369.089 1291.16 370.942 1294.13 382.117C1297.05 393.179 1297.61 395.144 1298.12 396.997C1298.46 398.064 1298.9 399.861 1299.19 400.928C1300.81 407.61 1301.94 411.541 1302.5 412.664C1303.12 413.73 1302.72 414.741 1299.75 420.75C1295.7 428.779 1293.79 432.429 1291.94 435.349C1290.93 437.034 1290.76 437.595 1291.32 438.269C1291.94 438.999 1291.66 439.111 1289.58 439.055C1288.24 439.055 1285.99 438.662 1284.59 438.213Z" fill="#67C745"/>
<path d="M942.618 291.599C942.618 290.251 943.236 289.634 946.605 287.5C951.209 284.58 957.723 277.898 960.531 273.237C965.472 264.927 967.269 254.426 965.135 245.947C961.092 229.775 949.525 218.32 933.241 214.446C927.12 212.986 923.358 213.21 913.756 215.737C907.242 217.478 906.512 217.534 895.731 217.534C883.097 217.59 879.166 216.86 870.519 213.042C867.992 211.919 865.521 210.908 865.016 210.74C864.342 210.515 864.005 209.841 864.005 208.606C864.005 206.978 864.229 206.697 866.7 205.798C871.585 203.945 876.751 199.565 878.885 195.466C879.728 193.726 881.412 193.108 881.412 194.456C881.468 195.466 887.701 199.79 893.485 202.71C904.098 208.157 914.823 210.122 926.615 208.887C931.781 208.381 933.69 207.988 939.53 206.416C945.931 204.619 955.926 204.675 962.945 206.528C966.146 207.371 973.39 211.133 976.478 213.547C987.54 222.307 992.762 233.032 992.762 247.07C992.706 255.437 991.976 258.694 988.382 266.05C983.441 276.045 972.884 284.749 962.44 287.556C961.429 287.837 959.745 288.286 958.79 288.567C954.803 289.746 947.84 291.543 945.931 291.936C944.864 292.161 943.629 292.554 943.292 292.778C942.843 293.059 942.618 292.666 942.618 291.599Z" fill="#67C745"/>
<path d="M1282.06 225.564C1281.05 221.914 1276.5 209.224 1273.92 202.71C1264.82 180.024 1252.52 158.518 1237.75 139.539C1229.78 129.263 1225.68 124.658 1214.68 113.708C1201.2 100.232 1192.38 92.8198 1177.17 82.2632C1170.43 77.6025 1168.24 75.6933 1168.91 75.0195C1169.08 74.9072 1171.21 74.2334 1173.69 73.5596C1179.3 72.0434 1186.04 70.2466 1188.45 69.6289C1189.46 69.4043 1190.59 68.8989 1190.98 68.562C1191.54 68.1128 1192.27 68.3374 1193.79 69.3481C1194.91 70.1343 1195.98 70.7519 1196.15 70.7519C1196.37 70.7519 1197.61 71.5381 1198.95 72.4365C1200.3 73.3911 1201.54 74.1211 1201.76 74.1211C1202.1 74.1211 1214.9 82.6562 1216.64 84.06C1217.09 84.397 1219.11 85.9131 1221.13 87.4292C1223.16 88.8891 1225.4 90.686 1226.19 91.3037C1226.97 91.9775 1230.01 94.5044 1232.93 96.9189C1238.82 101.748 1258.53 121.121 1261.39 124.827C1262.41 126.118 1263.92 127.971 1264.76 128.87C1265.61 129.824 1267.01 131.453 1267.85 132.632C1268.69 133.755 1269.71 134.99 1270.15 135.439C1270.55 135.833 1272.06 137.798 1273.52 139.819C1275.04 141.841 1276.56 143.862 1276.89 144.312C1277.29 144.761 1279.36 147.793 1281.55 151.05C1290.71 164.47 1298.96 179.631 1305.53 194.849C1305.98 195.916 1306.77 197.825 1307.33 199.06C1307.83 200.295 1308.45 201.812 1308.73 202.429C1308.96 203.047 1309.41 204.17 1309.74 204.956C1310.08 205.742 1310.87 207.988 1311.54 210.01C1312.16 212.031 1312.94 214.109 1313.22 214.614C1314.18 216.299 1313.84 217.703 1312.55 218.096C1310.75 218.657 1303.23 220.679 1300.87 221.24C1299.8 221.521 1298.01 221.97 1296.94 222.307C1294.64 222.925 1286.83 225.059 1284.14 225.732C1282.85 226.069 1282.23 226.013 1282.06 225.564Z" fill="#67C745"/>
<path d="M1087.32 137.742C1087.1 137.573 1086.93 136.675 1086.93 135.776C1086.93 134.597 1087.21 134.204 1088.05 134.204C1088.95 134.204 1089.18 134.597 1089.18 136.169C1089.18 138.022 1088.28 138.752 1087.32 137.742Z" fill="#67C745"/>
<path d="M875.291 496.724C872.428 494.084 861.983 483.416 857.884 478.98C857.154 478.193 854.515 475.049 852.044 471.96C849.518 468.872 847.328 466.233 847.159 466.064C846.991 465.896 846.205 464.885 845.475 463.818C844.745 462.751 843.958 461.741 843.79 461.572C843.565 461.404 841.881 459.045 839.972 456.238C838.062 453.486 835.816 450.173 834.974 448.882C834.132 447.647 833.065 446.018 832.616 445.232C832.166 444.502 830.763 442.256 829.527 440.234C823.8 430.801 816.668 416.763 811.502 404.578C808.47 397.39 804.259 385.542 802.237 378.467C801.844 377.063 801.339 375.322 801.114 374.536C800.384 372.178 799.037 366.899 797.745 361.621C797.464 360.554 796.959 358.14 796.622 356.287C796.285 354.434 795.78 351.907 795.499 350.671C795.218 349.436 794.825 347.415 794.657 346.179C794.488 344.944 794.039 342.305 793.758 340.283C791.737 327.256 790.838 311.477 791.231 294.407C791.4 286.321 791.793 277.505 792.13 274.753C794.039 259.648 795.836 248.979 797.745 241.455C798.026 240.388 798.644 237.861 799.149 235.84C800.047 232.415 800.328 231.292 801.676 226.575C802.013 225.508 802.462 223.767 802.743 222.813C802.967 221.802 804.034 218.713 804.989 215.906C807.572 208.718 807.516 208.943 806.505 208.55C806 208.381 805.606 207.876 805.606 207.427C805.606 206.809 810.772 206.641 835.255 206.528L864.847 206.36L868.104 204.844C871.698 203.159 876.751 198.667 878.38 195.691C879.447 193.669 881.412 192.996 881.412 194.568C881.412 198.33 874.449 205.181 868.329 207.483L865.689 208.494L868.609 209.841C878.998 214.727 884.388 215.906 896.012 215.85C904.603 215.85 905.782 215.681 912.296 213.997C921.786 211.526 928.243 211.133 934.925 212.761C951.209 216.636 962.777 228.091 966.82 244.263C969.234 253.865 967.381 266.274 962.215 274.922C959.464 279.526 953.287 285.928 948.626 289.016C946.38 290.476 944.247 291.992 943.854 292.385C943.46 292.778 942.674 293.115 942.169 293.115C940.877 293.115 903.368 303.167 901.065 304.177C899.999 304.626 898.202 305.076 897.022 305.188C892.474 305.693 877.088 310.129 873.382 312.039C866.869 315.464 861.703 322.034 859.793 329.446C856.087 343.596 865.128 358.701 879.447 362.463C883.883 363.586 886.971 363.53 895.057 362.126C901.065 361.06 902.469 361.003 906.737 361.565C916.058 362.744 922.123 365.72 928.636 372.29C934.42 378.13 936.722 382.847 940.316 396.436C941.832 402.163 943.348 408.171 943.685 409.8C945.201 416.987 943.966 425.466 940.26 432.935C938.407 436.809 937.059 438.606 933.128 442.48C927.794 447.759 924.706 449.556 915.665 452.588C905.782 455.845 897.752 461.011 891.913 467.918C885.399 475.498 880.57 486.504 879.896 495.264C879.728 497.734 879.334 499.756 879.054 499.756C878.829 499.756 877.088 498.352 875.291 496.724Z" fill="#7CCF61"/>
<path d="M1286.83 439.167C1286.38 438.831 1284.81 438.438 1283.35 438.269C1281.22 437.932 1280.66 437.651 1280.66 436.809C1280.66 436.023 1281.05 435.742 1282.06 435.742C1284.47 435.742 1290.43 437.539 1291.6 438.662C1292.67 439.673 1292.67 439.673 1290.2 439.673C1288.8 439.673 1287.28 439.448 1286.83 439.167Z" fill="#7CCF61"/>
<path d="M1269.59 433.384C1268.92 428.442 1266.84 422.715 1264.93 420.356C1257.58 411.316 1249.55 406.936 1240.39 406.992C1237.08 406.992 1235.56 406.768 1235.12 406.206C1234.61 405.588 1234.67 405.42 1235.4 405.42C1235.9 405.42 1236.29 405.139 1236.29 404.858C1236.29 403.455 1218.94 378.467 1215.57 374.873C1208.95 368.022 1200.36 362.913 1191.09 360.442C1184.58 358.645 1173.52 358.645 1165.71 360.386C1156.11 362.463 1150.49 361.958 1142.8 358.252C1137.24 355.557 1133.87 352.693 1130.5 347.751C1127.25 342.979 1126.85 341.743 1120.79 319.507C1116.02 301.763 1115.85 301.089 1115.85 295.081C1115.85 290.083 1116.07 288.174 1117.14 285.142C1120.79 274.585 1129.1 267.004 1140.27 263.972C1142.58 263.354 1149.31 261.558 1155.15 259.985C1161.05 258.413 1167.73 256.616 1170.04 255.999C1184.3 252.124 1193.28 241.455 1194.01 227.417C1194.29 222.7 1194.12 221.24 1192.61 215.344C1187.67 196.14 1186.32 193.108 1179.58 186.426C1174.25 181.091 1169.25 178.171 1162.74 176.655C1157.51 175.42 1150.27 175.532 1144.37 176.936C1137.97 178.452 1129.32 178.564 1123.15 177.217C1117.53 175.981 1108.49 171.658 1104.06 168.064C1096.76 162.168 1090.58 152.454 1088.28 143.469C1086.87 137.91 1086.87 126.287 1088.28 121.289C1092.15 107.7 1100.91 97.0874 1113.15 91.0791C1117.03 89.1138 1123.04 87.2607 1138.31 83.1616C1147.24 80.8032 1159.2 77.6025 1164.87 76.0864L1170.65 74.5142L1171.89 75.6372C1172.56 76.2549 1175.15 78.1079 1177.62 79.7363C1183.12 83.3862 1191.43 89.6191 1199.23 95.9644C1206.2 101.636 1225.96 121.177 1231.58 128.027C1254.32 155.542 1268.75 180.811 1280.32 213.491C1284.81 226.182 1284.81 225.059 1279.98 227.417C1272.51 230.955 1265.89 238.816 1262.91 247.632C1261.11 252.854 1261.45 261.558 1263.7 269.531C1264.65 273.069 1266.28 278.909 1267.23 282.446C1283.86 344.607 1283.01 341.519 1286.1 352.861L1288.63 362.351L1287.73 365.496C1284.75 375.996 1282.12 384.531 1280.49 389.417C1276.5 401.152 1268.3 419.851 1267.52 419.009C1266.95 418.447 1267.8 420.693 1268.64 421.929C1269.71 423.445 1272.23 432.429 1272.23 434.563C1272.23 435.237 1272.57 435.742 1273.07 435.742C1273.52 435.742 1273.92 436.135 1273.92 436.584C1273.92 437.146 1273.36 437.427 1272.06 437.427H1270.15L1269.59 433.384Z" fill="#7CCF61"/>
<path d="M967.887 418.447C967.887 418.223 965.641 417.717 962.889 417.38C959.632 416.931 956.937 416.257 954.972 415.247C940.204 407.778 938.744 387.17 952.333 378.018C955.196 376.108 960.025 374.087 961.036 374.368C961.935 374.705 961.935 376.782 960.98 376.782C960.531 376.782 958.678 377.568 956.825 378.467C948.851 382.454 943.741 391.55 945.426 398.85C946.942 405.195 951.715 411.035 957.611 413.618C959.745 414.573 962.271 415.134 965.472 415.359C967.999 415.527 970.133 415.92 970.133 416.145C970.133 416.426 969.627 417.156 969.01 417.773C968.392 418.391 967.887 418.672 967.887 418.447Z" fill="#7CCF61"/>
<path d="M891.52 310.242C892.586 309.175 893.541 308.276 893.709 308.276C893.878 308.276 893.148 309.175 892.081 310.242C891.014 311.309 890.06 312.207 889.891 312.207C889.723 312.207 890.453 311.309 891.52 310.242Z" fill="#7CCF61"/>
<path d="M992.762 246.79C992.762 244.937 992.875 244.263 992.987 245.273C993.099 246.284 993.099 247.8 992.987 248.643C992.875 249.485 992.762 248.643 992.762 246.79Z" fill="#7CCF61"/>
<path d="M1284.31 89.1699C1277.85 87.5977 1275.6 86.6431 1275.6 85.52C1275.6 85.127 1277.06 84.0601 1278.86 83.1616C1291.66 76.7041 1300.36 63.8452 1301.71 49.4141C1302.33 42.9565 1300.03 34.3091 1295.76 27.1216C1291.94 20.8325 1284.42 13.9819 1278.18 11.1743C1276.56 10.5005 1275.6 9.71436 1275.6 9.09668C1275.6 8.02979 1277.96 6.73828 1279.87 6.73828C1280.6 6.73828 1281.27 6.51368 1281.44 6.23291C1281.78 5.72754 1288.07 4.88526 1291.89 4.8291C1295.03 4.8291 1300.76 5.55909 1302.27 6.17676C1302.89 6.40137 1304.52 6.96289 1305.92 7.35596C1312.89 9.37745 1321.53 15.7788 1325.75 21.8994C1326.7 23.3032 1327.6 24.5386 1327.82 24.707C1328.16 24.9878 1331.19 31.333 1332.26 33.8599C1332.6 34.7022 1332.88 35.9937 1332.88 36.6675C1332.88 37.3975 1333.16 38.2398 1333.49 38.5767C1333.83 38.9136 1333.94 42.0581 1333.83 47.5049C1333.55 56.1524 1333.1 59.8584 1332.26 60.4199C1331.98 60.5884 1331.75 61.0938 1331.75 61.543C1331.75 62.7222 1329.56 67.2705 1327.6 70.1904C1323.39 76.5357 1317.38 82.0386 1311.65 84.79C1309.57 85.8008 1307.44 86.8115 1306.93 87.0923C1306.37 87.3731 1305.42 87.5977 1304.86 87.5977C1304.24 87.5977 1303.62 87.8223 1303.45 88.103C1302.67 89.2822 1288.12 90.1245 1284.31 89.1699Z" fill="#FFC243"/>
<path d="M1258.64 479.653C1256.73 479.26 1257.52 477.856 1259.6 477.856C1260.89 477.856 1261.56 478.137 1261.56 478.643C1261.56 479.485 1260.16 479.99 1258.64 479.653Z" fill="#5FB6FE"/>
<path d="M1250.78 479.148C1250.22 479.036 1249.77 478.53 1249.77 478.081C1249.77 477.52 1250.56 477.295 1252.86 477.295C1255.56 477.295 1255.95 477.407 1255.95 478.418C1255.95 479.373 1255.61 479.541 1253.87 479.485C1252.69 479.429 1251.29 479.316 1250.78 479.148Z" fill="#5FB6FE"/>
<path d="M1193.9 478.193C1189.18 476.677 1185.65 474.207 1182.89 470.332C1180.93 467.637 1180.87 467.187 1182.67 467.187C1183.57 467.187 1184.07 467.524 1184.07 468.03C1184.07 468.479 1184.35 468.872 1184.63 468.872C1184.97 468.872 1185.2 469.658 1185.2 470.557C1185.2 472.073 1185.36 472.241 1186.88 472.241C1187.89 472.241 1188.73 472.578 1188.9 473.083C1189.13 473.533 1189.58 473.926 1190.03 473.926C1190.47 473.926 1190.81 474.319 1190.81 474.768C1190.81 475.33 1191.37 475.61 1192.5 475.61C1193.45 475.61 1194.18 475.891 1194.18 476.172C1194.18 476.509 1195.08 476.733 1196.15 476.733C1197.72 476.733 1198.11 476.958 1198.11 477.856C1198.11 479.148 1197.16 479.204 1193.9 478.193Z" fill="#5FB6FE"/>
<path d="M1179.75 464.548C1177.9 460.225 1179.02 448.657 1181.32 448.657C1181.77 448.657 1181.83 449.387 1181.55 451.353C1181.32 452.812 1181.1 455.62 1181.1 457.642C1181.1 459.663 1181.32 462.471 1181.55 463.987C1182.11 467.3 1181.04 467.581 1179.75 464.548Z" fill="#5FB6FE"/>
<path d="M1181.27 447.646C1181.27 446.748 1184.41 442.761 1186.38 441.133C1188.68 439.167 1193.06 437.09 1196.03 436.584C1197.83 436.248 1198.11 436.304 1198.11 437.258C1198.11 438.044 1197.44 438.494 1195.58 438.999C1194.18 439.392 1192.55 439.673 1191.93 439.673C1191.32 439.673 1190.81 440.066 1190.81 440.515C1190.81 440.964 1190.42 441.357 1189.97 441.357C1189.52 441.357 1189.13 441.638 1189.13 441.919C1189.13 442.256 1188.23 442.48 1187.16 442.48C1185.31 442.48 1185.2 442.593 1185.2 444.446C1185.2 445.513 1184.97 446.411 1184.63 446.411C1184.35 446.411 1184.07 446.804 1184.07 447.253C1184.07 447.759 1183.57 448.096 1182.67 448.096C1181.88 448.096 1181.27 447.871 1181.27 447.646Z" fill="#5FB6FE"/>
<path d="M1209.62 432.541C1210.24 428.218 1210.52 427.319 1211.42 427.319C1212.15 427.319 1212.26 427.825 1211.92 430.295C1211.76 431.868 1211.59 433.665 1211.59 434.226C1211.59 434.844 1211.14 435.181 1210.41 435.181C1209.29 435.181 1209.23 434.956 1209.62 432.541Z" fill="#5FB6FE"/>
<path d="M1213.27 421.255C1213.27 420.469 1216.36 416.426 1218.72 414.067L1220.85 411.877L1221.02 413.45C1221.25 415.415 1220.29 416.65 1218.55 416.65C1217.43 416.65 1217.2 416.931 1217.2 418.335C1217.2 419.29 1216.98 420.02 1216.64 420.02C1216.36 420.02 1216.08 420.413 1216.08 420.862C1216.08 421.367 1215.57 421.704 1214.68 421.704C1213.89 421.704 1213.27 421.479 1213.27 421.255Z" fill="#5FB6FE"/>
<path d="M967.774 417.324C965.865 416.931 966.651 415.527 968.729 415.527C970.021 415.527 970.694 415.808 970.694 416.313C970.694 417.156 969.291 417.661 967.774 417.324Z" fill="#5FB6FE"/>
<path d="M1018.87 417.38C1018.31 417.268 1017.86 416.763 1017.86 416.313C1017.86 415.752 1018.59 415.527 1020.67 415.527C1023.08 415.527 1023.48 415.696 1023.48 416.65C1023.48 417.549 1023.14 417.773 1021.68 417.717C1020.67 417.661 1019.38 417.549 1018.87 417.38Z" fill="#5FB6FE"/>
<path d="M1045.38 416.707C1045.38 415.92 1045.71 415.527 1046.5 415.527C1047.12 415.527 1049.08 415.022 1050.82 414.404C1052.62 413.787 1054.59 413.281 1055.26 413.281C1056.16 413.281 1056.61 412.888 1056.72 412.046C1056.83 411.035 1057.34 410.698 1058.74 410.586C1060.31 410.417 1060.54 410.193 1060.54 408.733C1060.54 407.834 1060.82 407.104 1061.1 407.104C1061.44 407.104 1061.66 406.711 1061.66 406.262C1061.66 405.757 1062.17 405.42 1063.06 405.42C1064.92 405.42 1064.86 405.981 1062.62 408.901C1059.08 413.562 1053.86 416.538 1047.51 417.549C1045.6 417.886 1045.38 417.773 1045.38 416.707Z" fill="#5FB6FE"/>
<path d="M1222.54 411.035C1222.99 410.361 1226.52 408.059 1228.04 407.498C1228.77 407.217 1229 407.441 1229 408.508C1229 409.631 1228.71 409.912 1227.59 409.912C1226.69 409.912 1226.19 410.249 1226.19 410.754C1226.19 411.372 1225.57 411.597 1224.17 411.597C1222.93 411.597 1222.31 411.372 1222.54 411.035Z" fill="#5FB6FE"/>
<path d="M1229.56 407.554C1229.56 406.711 1232.87 405.42 1235.12 405.42C1235.73 405.42 1236.29 405.139 1236.29 404.802C1236.29 404.353 1236.52 404.297 1237.02 404.802C1237.47 405.139 1237.98 405.251 1238.15 405.027C1238.37 404.858 1238.54 405.195 1238.54 405.813C1238.54 406.711 1238.09 407.048 1236.46 407.329C1229.73 408.396 1229.56 408.396 1229.56 407.554Z" fill="#5FB6FE"/>
<path d="M1064.47 401.208C1064.47 399.636 1064.69 399.243 1065.59 399.243C1066.83 399.243 1067.05 400.366 1066.15 402.107C1065.25 403.791 1064.47 403.398 1064.47 401.208Z" fill="#5FB6FE"/>
<path d="M1064.47 390.54C1064.47 388.35 1065.25 387.957 1066.15 389.641C1067.05 391.382 1066.83 392.505 1065.59 392.505C1064.69 392.505 1064.47 392.112 1064.47 390.54Z" fill="#5FB6FE"/>
<path d="M1060.54 382.622C1060.54 380.432 1061.04 380.488 1062.78 382.959L1063.96 384.644H1062.28C1060.65 384.644 1060.54 384.475 1060.54 382.622Z" fill="#5FB6FE"/>
<path d="M1053.24 377.007C1053.24 376.221 1053.41 375.659 1053.69 375.771C1057.79 377.737 1058.18 378.467 1055.2 378.467C1053.46 378.467 1053.24 378.298 1053.24 377.007Z" fill="#5FB6FE"/>
<path d="M1047.23 376.389C1046.39 376.221 1045.94 375.715 1045.94 375.041C1045.94 373.806 1046.28 373.75 1049.64 374.592C1054.25 375.771 1052.12 377.344 1047.23 376.389Z" fill="#5FB6FE"/>
<path d="M958.341 375.659C958.341 375.378 958.734 375.098 959.183 375.098C959.632 375.098 960.025 374.873 960.025 374.592C960.025 374.311 960.531 374.199 961.148 374.368C963.114 374.873 962.496 376.221 960.306 376.221C959.239 376.221 958.341 375.996 958.341 375.659Z" fill="#5FB6FE"/>
<path d="M963.395 375.435C963.395 374.368 965.921 373.862 969.964 374.031C972.884 374.199 973.277 374.087 973.783 372.964C974.681 370.886 975.86 371.448 975.636 373.862L975.467 375.94L969.459 376.108C964.461 376.221 963.395 376.108 963.395 375.435Z" fill="#5FB6FE"/>
<path d="M1033.64 369.651C1033.3 367.854 1032.85 365.72 1032.63 364.878C1032.46 363.979 1032.12 363.306 1031.84 363.306C1031.56 363.306 1031.34 362.8 1031.34 362.183C1031.34 361.565 1031.11 361.06 1030.78 361.06C1030.5 361.06 1030.1 360.442 1029.88 359.656C1029.71 358.87 1029.32 358.252 1029.04 358.252C1028.76 358.252 1028.53 357.747 1028.53 357.129C1028.53 356.511 1028.19 356.006 1027.8 356.006C1026.9 356.006 1023.48 352.524 1023.48 351.626C1023.48 351.233 1022.97 350.952 1022.35 350.952C1021.46 350.952 1021.23 350.559 1021.23 349.211V347.527L1023.81 349.38C1029.21 353.198 1033.87 360.442 1035.55 367.517C1036.62 372.009 1036.62 372.852 1035.38 372.852C1034.54 372.852 1034.2 372.122 1033.64 369.651Z" fill="#5FB6FE"/>
<path d="M974.063 369.932C974.063 368.247 974.793 366.675 975.523 366.675C976.029 366.675 976.31 367.349 976.31 368.64C976.31 370.212 976.085 370.605 975.187 370.605C974.569 370.605 974.063 370.269 974.063 369.932Z" fill="#5FB6FE"/>
<path d="M975.187 365.271C975.187 363.923 978.556 357.353 980.296 355.332L981.869 353.479L981.925 355.613C981.925 356.736 981.7 357.69 981.363 357.69C981.083 357.69 980.802 358.083 980.802 358.533C980.802 358.982 980.409 359.375 979.959 359.375C979.454 359.375 979.117 359.88 979.117 360.779C979.117 361.677 978.78 362.183 978.275 362.183C977.713 362.183 977.433 362.8 977.433 364.148C977.433 365.72 977.208 366.113 976.31 366.113C975.692 366.113 975.187 365.72 975.187 365.271Z" fill="#5FB6FE"/>
<path d="M984.452 350.952C984.901 350.222 990.853 346.235 992.201 345.73C992.931 345.449 993.155 345.674 993.155 346.741C993.155 347.639 992.818 348.145 992.313 348.145C991.864 348.145 991.471 348.425 991.471 348.706C991.471 349.043 990.741 349.268 989.786 349.268C988.495 349.268 988.102 349.492 988.102 350.391C988.102 351.289 987.709 351.514 986.08 351.514C984.901 351.514 984.227 351.289 984.452 350.952Z" fill="#5FB6FE"/>
<path d="M1016.74 346.685C1016.74 345.898 1016.91 345.337 1017.19 345.449C1021.29 347.415 1021.68 348.144 1018.7 348.144C1016.96 348.144 1016.74 347.976 1016.74 346.685Z" fill="#5FB6FE"/>
<path d="M1011.57 346.067C1010.45 345.786 1010.17 343.652 1011.18 343.652C1012.81 343.652 1016.18 345.056 1016.18 345.73C1016.18 346.46 1013.71 346.628 1011.57 346.067Z" fill="#5FB6FE"/>
<path d="M995.401 345.337C995.401 344.551 997.086 343.821 1000.06 343.428C1002.42 343.035 1002.7 343.147 1002.7 344.102C1002.7 344.944 1002.2 345.281 1000.12 345.562C996.524 346.011 995.401 346.011 995.401 345.337Z" fill="#5FB6FE"/>
<path d="M880.851 187.717C880.851 182.888 880.177 179.126 879.391 179.126C878.885 179.126 878.604 178.452 878.604 177.161C878.604 174.353 879.559 174.746 881.075 178.171C883.265 183.113 883.602 190.356 881.637 190.356C881.075 190.356 880.851 189.57 880.851 187.717Z" fill="#5FB6FE"/>
<path d="M1132.02 178.171C1132.86 178.059 1134.1 178.059 1134.83 178.171C1135.5 178.284 1134.83 178.396 1133.26 178.396C1131.74 178.396 1131.12 178.284 1132.02 178.171Z" fill="#5FB6FE"/>
<path d="M874.505 173.062C873.944 172.5 873.551 171.714 873.551 171.377C873.551 170.984 873.045 170.703 872.428 170.703C871.585 170.703 871.305 170.31 871.305 169.299C871.305 168.513 871.529 167.896 871.754 167.896C872.596 167.896 876.808 171.265 877.706 172.668C878.604 174.072 878.604 174.072 877.032 174.072C876.134 174.072 875.011 173.623 874.505 173.062Z" fill="#5FB6FE"/>
<path d="M862.882 166.211C862.882 165.032 863.443 164.863 865.577 165.425C867.599 165.986 867.093 167.334 864.847 167.334C863.275 167.334 862.882 167.109 862.882 166.211Z" fill="#5FB6FE"/>
<path d="M849.574 160.203C848.844 156.946 847.047 151.948 846.485 151.724C846.205 151.611 846.036 151.162 846.036 150.713C846.036 150.264 845.812 149.927 845.475 149.927C845.194 149.927 844.913 149.534 844.913 149.084C844.913 148.635 844.688 148.242 844.352 148.242C844.071 148.242 843.79 147.512 843.79 146.558C843.79 145.154 843.565 144.873 842.386 144.873C841.207 144.873 840.982 144.592 840.982 143.188C840.982 141.055 841.319 141.055 843.341 143.357C847.44 147.905 849.911 152.454 851.427 158.125C852.438 162.168 852.438 162.842 851.146 162.842C850.36 162.842 849.967 162.224 849.574 160.203Z" fill="#5FB6FE"/>
<path d="M908.814 126.006C908.253 125.837 907.804 125.332 907.804 124.883C907.804 124.265 908.814 124.097 912.521 124.097C915.104 124.097 919.315 123.704 921.898 123.254C927.008 122.356 975.074 109.722 976.029 108.992C981.139 105.229 988.663 98.5474 991.471 95.3467C996.188 89.8999 998.771 85.8569 1015.28 58.3423L1029.21 35.0391L1034.09 34.3652C1036.73 34.0283 1041.95 33.5791 1045.66 33.4106C1049.36 33.2983 1053.97 32.9614 1055.93 32.793C1057.96 32.5684 1059.42 32.6245 1059.42 32.9053C1059.42 33.6914 1039.48 68.2251 1035.21 74.9634C1028.25 85.8569 1016.57 96.3574 1004.83 102.31C998.041 105.735 992.875 107.476 979.959 110.732C977.489 111.294 965.978 114.326 954.41 117.471C942.843 120.559 930.714 123.704 927.457 124.434C921.842 125.725 910.892 126.624 908.814 126.006Z" fill="#5FB6FE"/>
<path d="M899.662 124.658C895.113 123.647 889.33 121.626 885.848 119.885C880.233 117.078 870.743 111.462 870.743 110.957C870.743 110.62 871.361 109.89 872.091 109.385C873.382 108.486 873.438 108.486 873.719 109.441C873.832 109.946 875.46 111.238 877.257 112.305C879.054 113.315 880.682 114.326 880.851 114.495C881.019 114.719 883.939 116.179 887.42 117.808C893.26 120.559 902.862 123.535 905.895 123.535C906.849 123.535 907.242 123.872 907.242 124.658C907.242 126.062 905.838 126.062 899.662 124.658Z" fill="#5FB6FE"/>
<path d="M1253.59 479.148C1251.57 478.643 1252.47 477.295 1254.83 477.295C1256.68 477.295 1257.07 477.463 1257.07 478.418C1257.07 479.541 1255.95 479.766 1253.59 479.148Z" fill="#86C7FC"/>
<path d="M1191.93 477.463C1189.18 476.284 1184.86 473.027 1183.46 471.062L1182.33 469.434H1184.07C1185.36 469.434 1185.93 469.714 1186.15 470.557C1186.32 471.174 1186.82 471.68 1187.22 471.68C1187.67 471.68 1188 472.241 1188 473.084C1188 474.319 1188.23 474.487 1189.91 474.487C1190.98 474.487 1192.22 474.88 1192.72 475.33C1193.17 475.779 1194.07 476.172 1194.69 476.172C1195.47 476.172 1195.87 476.509 1195.87 477.295C1195.87 478.643 1194.74 478.699 1191.93 477.463Z" fill="#86C7FC"/>
<path d="M1179.36 463.145C1178.79 461.011 1178.96 460.449 1180.14 460.449C1181.04 460.449 1181.27 460.842 1181.27 462.415C1181.27 464.661 1179.92 465.166 1179.36 463.145Z" fill="#86C7FC"/>
<path d="M1178.85 458.709C1178.68 458.035 1178.79 456.126 1179.08 454.385C1179.36 452.588 1179.58 451.128 1179.58 451.072C1179.58 450.96 1179.97 450.903 1180.48 450.903C1181.27 450.903 1181.38 451.353 1181.04 453.879C1180.87 455.452 1180.7 457.473 1180.7 458.372C1180.7 460.168 1179.3 460.449 1178.85 458.709Z" fill="#86C7FC"/>
<path d="M1183.57 444.109C1184.97 442.144 1189.24 438.831 1191.54 438.044C1192.89 437.539 1193.06 437.595 1193.06 438.774C1193.06 440.178 1192.1 440.796 1189.91 440.796C1189.01 440.796 1188.57 441.133 1188.57 441.807C1188.57 443.267 1185.53 445.85 1183.79 445.85H1182.33L1183.57 444.109Z" fill="#86C7FC"/>
<path d="M1208.33 436.472C1209 436.304 1209.4 435.349 1209.68 433.047C1210.24 428.105 1211.92 423.389 1214.34 419.626C1217.15 415.303 1217.76 414.91 1217.76 417.437C1217.76 419.065 1217.54 419.458 1216.64 419.458C1215.74 419.458 1215.52 419.851 1215.52 421.143C1215.52 422.097 1215.29 422.827 1214.96 422.827C1214.68 422.827 1214.4 423.333 1214.4 423.894C1214.4 424.512 1214.06 425.354 1213.67 425.747C1212.88 426.589 1211.59 432.317 1211.59 435.068C1211.59 436.809 1211.48 436.865 1209.51 436.809C1208.33 436.753 1207.83 436.641 1208.33 436.472Z" fill="#86C7FC"/>
<path d="M1021.12 417.38C1020.56 417.268 1020.11 416.763 1020.11 416.313C1020.11 415.64 1022.19 415.527 1032.91 415.527C1039.93 415.527 1047.01 415.359 1048.63 415.19C1051.05 414.854 1051.55 414.966 1051.55 415.696C1051.55 417.212 1046.56 417.773 1033.98 417.717C1027.41 417.661 1021.62 417.549 1021.12 417.38Z" fill="#86C7FC"/>
<path d="M1053.8 414.18C1053.8 412.72 1054.7 412.158 1057.28 412.158C1058.8 412.158 1058.91 412.271 1058.24 413.057C1057.56 413.843 1054.81 415.527 1054.08 415.527C1053.91 415.527 1053.8 414.91 1053.8 414.18Z" fill="#86C7FC"/>
<path d="M1220.57 412.495C1221.3 411.597 1226.36 408.228 1226.92 408.228C1227.14 408.228 1227.31 408.845 1227.31 409.631C1227.31 410.811 1227.03 411.035 1225.63 411.035C1224.33 411.035 1223.94 411.26 1223.94 412.158C1223.94 413.057 1223.55 413.281 1221.92 413.281C1220.18 413.281 1219.95 413.169 1220.57 412.495Z" fill="#86C7FC"/>
<path d="M1059.98 409.688C1059.98 407.835 1060.09 407.666 1061.72 407.666H1063.4L1062.22 409.351C1060.48 411.821 1059.98 411.877 1059.98 409.688Z" fill="#86C7FC"/>
<path d="M1227.87 408.228C1227.87 407.554 1229.73 406.543 1230.9 406.543C1231.41 406.543 1231.8 407.048 1231.8 407.666C1231.8 408.564 1231.41 408.789 1229.84 408.789C1228.77 408.789 1227.87 408.564 1227.87 408.228Z" fill="#86C7FC"/>
<path d="M1063.91 402.781C1063.91 400.085 1064.52 398.682 1065.65 398.682C1066.88 398.682 1066.94 399.187 1066.04 402.107C1065.31 404.634 1063.91 405.083 1063.91 402.781Z" fill="#86C7FC"/>
<path d="M1064.24 391.831C1063.18 387.732 1064.86 385.654 1066.04 389.641C1066.94 392.561 1066.88 393.066 1065.65 393.066C1065.03 393.066 1064.47 392.561 1064.24 391.831Z" fill="#86C7FC"/>
<path d="M1061.66 384.251L1061.72 382.117L1063.06 383.689C1064.86 385.71 1064.81 386.328 1063.06 386.328C1061.83 386.328 1061.66 386.104 1061.66 384.251Z" fill="#86C7FC"/>
<path d="M1056.83 380.432C1056.61 379.983 1056.16 379.59 1055.71 379.59C1055.26 379.59 1054.92 379.197 1054.92 378.748C1054.92 378.242 1054.42 377.905 1053.58 377.905C1052.85 377.905 1051.83 377.737 1051.33 377.568C1050.15 377.119 1050.15 375.098 1051.33 375.098C1052.68 375.098 1058.57 378.355 1060.03 379.927L1061.27 381.274H1059.19C1057.9 381.274 1057 380.994 1056.83 380.432Z" fill="#86C7FC"/>
<path d="M971.817 375.378C971.817 374.929 972.21 374.536 972.716 374.536C973.221 374.536 973.727 374.031 973.895 373.413C974.4 371.448 975.748 372.065 975.748 374.255C975.748 376.108 975.636 376.221 973.783 376.221C972.435 376.221 971.817 375.94 971.817 375.378Z" fill="#86C7FC"/>
<path d="M1043.69 375.098C1043.69 374.255 1044.09 373.975 1045.26 373.975C1047.62 373.975 1049.31 374.592 1049.31 375.435C1049.31 375.996 1048.52 376.221 1046.5 376.221C1044.09 376.221 1043.69 376.052 1043.69 375.098Z" fill="#86C7FC"/>
<path d="M1034.15 372.29C1034.15 370.156 1034.37 369.482 1034.99 369.482C1035.55 369.482 1035.94 370.269 1036.17 371.729C1036.39 373.076 1036.84 373.975 1037.29 373.975C1037.74 373.975 1038.08 374.255 1038.08 374.536C1038.08 374.873 1037.18 375.098 1036.11 375.098H1034.15V372.29Z" fill="#86C7FC"/>
<path d="M974.344 368.809C975.355 362.969 977.994 358.701 977.994 362.969C977.994 364.092 977.77 364.99 977.489 364.99C977.208 364.99 976.815 366.394 976.59 368.079C976.31 370.662 976.029 371.167 975.074 371.167C974.063 371.167 974.007 370.942 974.344 368.809Z" fill="#86C7FC"/>
<path d="M1031.9 362.463C1031.9 360.273 1032.24 360.049 1033.36 361.509C1034.48 362.969 1034.31 364.429 1033.02 364.429C1032.13 364.429 1031.9 364.036 1031.9 362.463Z" fill="#86C7FC"/>
<path d="M977.433 360.105C977.433 359.543 980.802 354.49 981.7 353.76C982.374 353.142 982.486 353.367 982.486 355.107C982.486 356.736 982.262 357.129 981.363 357.129C980.465 357.129 980.24 357.522 980.24 358.813C980.24 360.217 980.016 360.498 978.836 360.498C978.05 360.498 977.433 360.33 977.433 360.105Z" fill="#86C7FC"/>
<path d="M1027.97 355.669C1027.97 353.479 1028.48 353.535 1030.22 356.006L1031.4 357.69H1029.71C1028.08 357.69 1027.97 357.522 1027.97 355.669Z" fill="#86C7FC"/>
<path d="M983.609 351.794C983.609 351.401 988.775 347.583 989.281 347.583C989.562 347.583 989.786 348.201 989.786 348.987C989.786 349.998 989.505 350.391 988.663 350.391C988.045 350.391 987.54 350.784 987.54 351.233C987.54 351.794 986.922 352.075 985.575 352.075C984.508 352.075 983.609 351.963 983.609 351.794Z" fill="#86C7FC"/>
<path d="M1019.55 348.425C1019.55 346.685 1020.16 346.628 1022.19 348.425L1023.76 349.773L1021.68 349.829C1019.77 349.829 1019.55 349.661 1019.55 348.425Z" fill="#86C7FC"/>
<path d="M990.909 347.022C990.909 346.404 993.885 344.775 995.121 344.775C996.244 344.775 996.244 346.797 995.064 347.246C993.661 347.751 990.909 347.639 990.909 347.022Z" fill="#86C7FC"/>
<path d="M1014.66 347.19C1013.65 346.797 1013.76 344.775 1014.77 344.775C1016.01 344.775 1018.99 346.404 1018.99 347.022C1018.99 347.583 1015.9 347.695 1014.66 347.19Z" fill="#86C7FC"/>
<path d="M999.332 344.551C999.332 343.821 1000.9 343.091 1002.59 343.091C1002.93 343.091 1003.26 343.596 1003.26 344.214C1003.26 345.112 1002.87 345.337 1001.3 345.337C1000.01 345.337 999.332 345.056 999.332 344.551Z" fill="#86C7FC"/>
<path d="M1006.63 344.214C1006.63 343.035 1007.19 342.866 1009.33 343.428C1011.35 343.989 1010.84 345.337 1008.6 345.337C1007.02 345.337 1006.63 345.112 1006.63 344.214Z" fill="#86C7FC"/>
<path d="M880.289 192.322C880.289 190.75 880.514 190.356 881.412 190.356C882.647 190.356 882.872 191.479 881.974 193.22C881.075 194.905 880.289 194.512 880.289 192.322Z" fill="#86C7FC"/>
<path d="M880.851 186.707C880.851 183.955 882.142 183.113 882.704 185.415C883.153 187.156 882.591 189.233 881.637 189.233C881.075 189.233 880.851 188.503 880.851 186.707Z" fill="#86C7FC"/>
<path d="M879.391 179.968C879.222 178.901 878.829 178.003 878.548 178.003C878.268 178.003 878.043 177.61 878.043 177.161C878.043 176.711 877.818 176.318 877.481 176.318C877.201 176.318 876.92 175.42 876.92 174.241C876.92 172.275 876.976 172.275 877.987 173.174C878.998 174.128 880.907 177.554 881.974 180.417C882.479 181.821 882.367 181.934 881.131 181.934C880.008 181.934 879.728 181.597 879.391 179.968Z" fill="#86C7FC"/>
<path d="M871.866 170.703C871.866 170.422 871.473 170.142 871.024 170.142C870.575 170.142 870.182 169.917 870.182 169.692C870.182 169.299 864.286 167.334 862.994 167.334C862.601 167.334 862.32 166.829 862.32 166.211C862.32 164.863 862.77 164.863 866.7 165.874C869.789 166.716 874 168.906 875.235 170.366C875.853 171.152 875.685 171.265 873.888 171.265C872.765 171.265 871.866 171.04 871.866 170.703Z" fill="#86C7FC"/>
<path d="M849.967 161.438C849.967 159.192 851.314 158.687 851.876 160.764C852.438 162.842 852.269 163.403 851.09 163.403C850.191 163.403 849.967 163.01 849.967 161.438Z" fill="#86C7FC"/>
<path d="M848.844 156.384C848.844 154.194 849.63 153.801 850.528 155.486C851.427 157.227 851.202 158.35 849.967 158.35C849.068 158.35 848.844 157.957 848.844 156.384Z" fill="#86C7FC"/>
<path d="M846.598 150.769C846.598 147.793 847.328 148.186 849.293 152.341C849.405 152.566 848.844 152.734 848.058 152.734C846.766 152.734 846.598 152.51 846.598 150.769Z" fill="#86C7FC"/>
<path d="M843.229 145.659C843.229 143.469 843.734 143.525 845.475 145.996L846.654 147.681H844.969C843.341 147.681 843.229 147.512 843.229 145.659Z" fill="#86C7FC"/>
<path d="M900.785 124.658C895.282 123.479 890.509 121.907 886.185 119.773C880.626 117.021 871.305 111.519 871.305 110.901C871.305 109.385 886.859 95.459 897.809 87.2607C903.592 82.937 918.192 72.998 918.753 72.998C918.978 72.998 920.157 72.2681 921.449 71.4258C922.74 70.5273 924.2 69.6289 924.649 69.4604C925.099 69.2358 926.783 68.3374 928.299 67.439C931.332 65.5859 945.033 58.7353 949.637 56.7139C953.343 55.0854 956.095 53.9062 957.667 53.2886C958.341 53.0078 959.576 52.5024 960.475 52.1655C962.608 51.2671 963.956 50.7617 966.202 49.9756C967.269 49.5825 968.673 49.0771 969.291 48.8525C970.75 48.2349 979.791 45.3149 983.048 44.3603C984.452 43.9673 986.192 43.4619 986.979 43.2373C993.885 41.1035 1007.53 38.1274 1017.86 36.499C1030.38 34.5337 1031.34 34.4775 1031.34 35.4321C1031.34 36.1059 1003.15 83.2739 999.276 89.0576C994.278 96.5259 987.091 103.77 977.713 110.676C976.759 111.406 928.692 124.041 923.583 124.939C917.125 126.118 907.018 125.95 900.785 124.658Z" fill="#86C7FC"/>
<path d="M1273.97 85.6323C1266 81.9263 1258.03 74.1772 1254.32 66.5967C1250.67 58.96 1249.77 55.1978 1249.77 47.3926C1249.83 40.2612 1250.61 36.2183 1253.2 30.4907C1253.76 29.1431 1254.26 27.9639 1254.26 27.7954C1254.26 26.9531 1258.98 20.6641 1261.68 17.9126C1264.93 14.4873 1268.3 12.0728 1273.19 9.48974L1276.33 7.80517L1279.48 9.32129C1300.7 19.3164 1309.57 44.8096 1299.13 65.979C1295.2 74.0088 1289.36 80.0171 1280.82 84.7339L1276.78 86.9238L1273.97 85.6323Z" fill="#FFDF76"/>
<path d="M1254.71 479.148C1252.64 478.643 1253.65 476.902 1256.9 475.273C1261.06 473.252 1264.88 469.434 1266.95 465.222C1268.3 462.415 1268.58 461.179 1268.58 457.642C1268.58 454.104 1268.3 452.869 1266.95 450.061C1264.88 445.85 1261 442.031 1256.73 439.954C1253.7 438.438 1252.8 438.325 1246.07 438.101L1238.65 437.876L1237.98 433.328C1236.97 426.926 1233.49 420.188 1229.05 415.92C1226.02 413 1223.38 411.821 1223.38 413.281C1223.38 413.618 1222.48 413.843 1221.36 413.843C1219.62 413.843 1219.39 413.73 1220.01 413C1221.3 411.428 1227.09 407.947 1230.68 406.599C1233.71 405.476 1235.34 405.251 1240.51 405.195C1249.04 405.195 1254.32 407.104 1260.83 412.551C1266.56 417.38 1270.66 424.849 1271.39 432.036L1271.78 435.742H1276.67C1290.15 435.798 1298.06 440.571 1301.66 450.903C1302.61 453.599 1302.89 462.021 1302.11 463.706C1301.82 464.211 1301.04 465.952 1300.31 467.468C1297.95 472.522 1292.56 476.902 1286.21 478.923C1284.31 479.541 1256.96 479.766 1254.71 479.148Z" fill="#C4D2DC"/>
<path d="M1194.46 478.193C1186.71 475.723 1180.54 469.153 1179.24 462.021C1178.91 460.112 1179.02 459.888 1180.09 459.888C1180.76 459.888 1181.27 460.225 1181.27 460.786C1181.27 461.909 1183.62 467.412 1184.19 467.637C1184.41 467.749 1184.63 468.423 1184.63 469.153C1184.63 470.107 1184.97 470.557 1185.93 470.669C1186.71 470.781 1187.22 471.287 1187.33 472.129C1187.44 472.915 1187.89 473.364 1188.57 473.364C1190.14 473.364 1191.37 473.982 1191.37 474.768C1191.37 475.161 1192.22 475.61 1193.23 475.779C1199.63 476.846 1199.8 476.902 1199.8 477.913C1199.8 479.204 1197.89 479.26 1194.46 478.193Z" fill="#C4D2DC"/>
<path d="M1179.24 453.599C1180.54 445.4 1188.9 437.483 1197.49 436.472C1200.13 436.191 1200.36 436.248 1200.36 437.371C1200.36 438.325 1200.02 438.55 1198.56 438.55C1197.55 438.55 1195.58 439.055 1194.24 439.673C1192.89 440.291 1191.49 440.796 1191.09 440.796C1190.7 440.796 1190.25 441.189 1190.03 441.638C1189.86 442.087 1189.07 442.48 1188.28 442.48C1187.27 442.48 1186.88 442.761 1186.88 443.604C1186.88 444.334 1186.49 444.727 1185.76 444.727C1184.97 444.727 1184.63 445.12 1184.63 446.074C1184.63 446.804 1184.41 447.534 1184.19 447.647C1183.51 447.927 1181.27 453.43 1181.27 454.778C1181.27 455.62 1180.93 455.957 1180.09 455.957C1178.96 455.957 1178.91 455.732 1179.24 453.599Z" fill="#C4D2DC"/>
<path d="M1207.66 437.146C1207.66 436.697 1208.05 436.304 1208.5 436.304C1208.95 436.304 1209.45 435.686 1209.68 434.9C1210.24 432.598 1211.59 433.159 1211.59 435.742C1211.59 437.932 1211.53 437.988 1209.62 437.988C1208.27 437.988 1207.66 437.708 1207.66 437.146Z" fill="#C4D2DC"/>
<path d="M1209.9 431.98C1209.96 428.33 1213.27 420.525 1216.36 416.931L1218.27 414.685L1218.33 416.819C1218.33 418.279 1218.1 418.896 1217.48 418.896C1217.03 418.896 1216.64 419.402 1216.64 420.02C1216.64 420.637 1216.25 421.143 1215.8 421.143C1215.29 421.143 1214.96 421.648 1214.96 422.546C1214.96 423.445 1214.62 423.95 1214.11 423.95C1213.61 423.95 1213.27 424.456 1213.27 425.186C1213.27 425.859 1212.99 427.881 1212.6 429.678C1212.09 432.205 1211.7 432.935 1210.91 432.935C1210.3 432.935 1209.9 432.542 1209.9 431.98Z" fill="#C4D2DC"/>
<path d="M1020.67 416.145C1020.67 415.303 1021.51 414.629 1023.76 413.506C1027.75 411.653 1031.9 407.498 1033.98 403.342C1036.17 398.794 1036.22 393.123 1034.03 388.406C1032.13 384.419 1027.91 380.151 1023.65 378.13C1020.73 376.726 1019.66 376.501 1013.37 376.333C1009.5 376.221 1006.18 375.94 1005.96 375.715C1005.73 375.491 1005.17 373.301 1004.72 370.774C1003.54 363.979 1001.07 359.375 995.851 354.209C991.639 349.941 989.674 348.931 989 350.671C988.832 351.121 988.438 351.514 988.158 351.514C987.821 351.514 986.529 352.637 985.238 354.041C983.946 355.444 982.542 356.567 982.149 356.567C981.7 356.567 981.363 357.073 981.363 357.69C981.363 358.308 980.97 358.813 980.521 358.813C980.072 358.813 979.679 359.263 979.679 359.824C979.679 360.33 979.061 362.295 978.275 364.148C977.545 366.001 976.759 368.584 976.534 369.932C976.253 371.785 975.973 372.29 975.074 372.29C974.063 372.29 973.951 372.065 974.344 369.651C975.973 358.645 983.778 349.155 994.615 344.944C998.041 343.652 999.276 343.484 1004.95 343.484C1010.62 343.484 1011.85 343.652 1015.34 345C1020.45 346.965 1023.81 349.211 1027.24 352.805C1032.18 358.027 1035.04 363.811 1035.72 370.1L1036.11 373.694L1042.51 374.087C1050.32 374.592 1054.08 375.715 1058.24 378.748C1069.8 387.283 1069.47 405.701 1057.56 413.394C1052.06 416.987 1052.56 416.875 1036 417.1C1020.89 417.268 1020.67 417.268 1020.67 416.145Z" fill="#C4D2DC"/>
<path d="M952.95 413.73C949.525 411.372 949.188 410.474 951.827 410.474C953.456 410.474 953.849 410.698 953.849 411.597C953.849 412.495 954.242 412.72 955.533 412.72C956.937 412.72 957.218 412.944 957.218 414.124C957.218 415.977 956.207 415.92 952.95 413.73Z" fill="#C4D2DC"/>
<path d="M958.341 375.996C958.341 375.154 960.025 374.536 962.44 374.536C963.563 374.536 963.956 374.817 963.956 375.659C963.956 376.614 963.563 376.782 961.148 376.782C959.127 376.782 958.341 376.558 958.341 375.996Z" fill="#C4D2DC"/>
<path d="M835.929 207.09C835.929 206.079 836.49 205.574 838.512 204.731C842.386 203.159 846.822 198.723 848.956 194.399C850.528 191.199 850.809 190.076 850.753 186.707C850.697 178.508 844.913 170.984 836.49 168.176C834.974 167.671 830.763 167.109 827.113 166.885L820.487 166.492L820.15 163.403C819.364 156.272 816.051 149.758 810.492 144.592C808.246 142.571 805.999 140.493 805.438 140.044C804.652 139.37 804.54 139.033 805.045 138.416C805.943 137.349 808.863 135.889 810.155 135.889C810.716 135.889 811.278 135.664 811.446 135.383C812.176 134.204 822.452 133.362 825.765 134.204C835.423 136.619 839.859 139.202 844.632 145.154C848.226 149.59 850.472 154.531 851.595 160.315L852.494 165.088H857.828C869.227 165.088 876.415 169.075 880.57 177.722C882.367 181.372 882.535 182.214 882.535 186.594C882.535 190.132 882.198 192.266 881.356 194.568C879.728 198.948 875.067 203.889 870.294 206.191L866.588 208.044L851.258 208.213L835.929 208.381V207.09Z" fill="#C4D2DC"/>
<path d="M1195.87 478.362C1189.69 477.126 1183.68 472.297 1180.82 466.177C1179.52 463.425 1179.3 462.246 1179.3 457.642C1179.3 452.7 1179.47 451.97 1181.15 448.489C1183.4 443.94 1187.44 440.178 1192.27 438.157C1195.02 436.978 1196.76 436.697 1202.77 436.416L1209.9 436.135V434.114C1209.96 425.916 1215.69 415.64 1222.76 411.091L1225.51 409.294L1229.78 413.337C1235.23 418.503 1238.54 424.624 1239.66 431.643L1240.34 436.191L1247.75 436.416C1254.49 436.641 1255.39 436.753 1258.42 438.269C1262.69 440.347 1266.56 444.165 1268.64 448.376C1270.1 451.465 1270.27 452.251 1270.27 457.642C1270.27 463.032 1270.1 463.818 1268.64 466.907C1266.5 471.174 1262.8 474.88 1258.31 477.183L1254.71 478.979L1226.58 478.923C1211.08 478.867 1197.27 478.643 1195.87 478.362Z" fill="#D7E6EB"/>
<path d="M1273.8 436.248C1273.07 436.023 1274.82 435.855 1277.57 435.855C1282.62 435.911 1282.68 436.135 1277.74 436.416C1276.28 436.528 1274.53 436.416 1273.8 436.248Z" fill="#D7E6EB"/>
<path d="M960.868 416.875C958.172 416.313 955.533 415.303 955.533 414.854C955.533 414.573 955.309 414.46 955.028 414.629C954.466 415.022 950.76 412.383 948.739 410.137C940.877 401.377 941.495 388.237 950.199 380.208C954.691 376.052 957.835 374.985 966.539 374.648L974.063 374.368V372.852C974.063 370.156 976.253 362.744 977.994 359.431C979.847 355.95 984.62 350.952 988.607 348.313L991.021 346.685L992.818 348.088C1000.96 354.771 1005 361.003 1006.41 369.089C1006.86 371.616 1007.42 373.806 1007.64 374.031C1007.87 374.255 1011.18 374.536 1015.05 374.648C1021.34 374.817 1022.41 375.042 1025.33 376.445C1031.9 379.646 1036.5 385.879 1037.4 392.842C1038.64 402.388 1033.92 411.035 1025.11 415.415L1021.51 417.212L991.751 417.156C975.355 417.1 961.485 416.987 960.868 416.875Z" fill="#D7E6EB"/>
<path d="M790.726 208.325C773.263 207.988 773.487 208.044 768.546 204.731C764.278 201.868 762.032 198.892 759.618 192.996C758.888 191.143 758.775 182.383 759.449 180.923C759.73 180.417 760.516 178.733 761.246 177.161C762.875 173.735 767.423 169.131 770.792 167.559C775.228 165.481 777.193 165.088 783.202 165.088H789.098L789.828 161.27C790.67 156.665 791.175 155.149 793.421 150.657C795.218 146.838 800.272 141.279 803.922 138.977C806.505 137.349 805.775 137.012 812.176 142.908C817.735 148.074 821.048 154.587 821.834 161.719L822.171 164.807L828.797 165.2C832.447 165.425 836.659 165.986 838.175 166.492C843.846 168.401 848.675 172.725 851.202 178.34C852.213 180.586 852.494 182.102 852.494 186.707C852.494 191.648 852.325 192.715 850.978 195.522C849.012 199.79 845.025 203.889 841.095 205.911C839.354 206.753 837.782 207.651 837.613 207.876C837.164 208.438 810.604 208.662 790.726 208.325Z" fill="#D7E6EB"/>
</g>
<g filter="url(#filter1_dd_12_4)">
<path d="M98.1591 284.909H115.205C114.423 262.963 94.1818 246.557 66.0568 246.557C38.2159 246.557 16.3409 262.75 16.3409 287.182C16.3409 306.784 30.5455 318.432 53.2727 324.966L71.1705 330.08C86.5114 334.341 100.148 339.739 100.148 354.227C100.148 370.136 84.8068 380.648 64.6364 380.648C47.3068 380.648 31.9659 372.977 30.5455 356.5H12.3636C14.0682 380.364 33.3864 396.557 64.6364 396.557C98.1591 396.557 117.193 378.091 117.193 354.511C117.193 327.239 91.3409 318.432 76.2841 314.455L61.5114 310.477C50.7159 307.636 33.3864 301.955 33.3864 286.33C33.3864 272.409 46.1705 262.182 65.4886 262.182C83.1023 262.182 96.4545 270.562 98.1591 284.909ZM143.88 434.909H160.641V377.239H162.062C165.755 383.205 172.857 396.273 193.88 396.273C221.153 396.273 240.187 374.398 240.187 339.739C240.187 305.364 221.153 283.489 193.596 283.489C172.289 283.489 165.755 296.557 162.062 302.239H160.073V284.909H143.88V434.909ZM160.357 339.455C160.357 315.023 171.153 298.545 191.607 298.545C212.914 298.545 223.425 316.443 223.425 339.455C223.425 362.75 212.63 381.216 191.607 381.216C171.437 381.216 160.357 364.17 160.357 339.455ZM297.857 396.557C316.891 396.557 326.835 386.33 330.244 379.227H331.096V394H347.857V322.125C347.857 287.466 321.437 283.489 307.516 283.489C291.039 283.489 272.289 289.17 263.766 309.057L279.675 314.739C283.369 306.784 292.104 298.261 308.085 298.261C323.496 298.261 331.096 306.429 331.096 320.42V320.989C331.096 329.085 322.857 328.375 302.971 330.932C282.729 333.56 260.641 338.034 260.641 363.034C260.641 384.341 277.119 396.557 297.857 396.557ZM300.414 381.5C287.062 381.5 277.403 375.534 277.403 363.886C277.403 351.102 289.05 347.125 302.119 345.42C309.221 344.568 328.255 342.58 331.096 339.17V354.511C331.096 368.148 320.3 381.5 300.414 381.5ZM422.768 396.273C446.916 396.273 462.825 381.5 465.666 362.182H448.905C445.78 374.114 435.837 381.216 422.768 381.216C402.882 381.216 390.098 364.739 390.098 339.455C390.098 314.739 403.166 298.545 422.768 298.545C437.541 298.545 446.348 307.636 448.905 317.58H465.666C462.825 297.125 445.496 283.489 422.484 283.489C392.939 283.489 373.337 306.784 373.337 340.023C373.337 372.693 392.087 396.273 422.768 396.273ZM535.908 396.273C558.067 396.273 574.26 385.193 579.374 368.716L563.18 364.17C558.919 375.534 549.047 381.216 535.908 381.216C516.234 381.216 502.669 368.503 501.888 345.136H581.078V338.034C581.078 297.409 556.93 283.489 534.203 283.489C504.658 283.489 485.055 306.784 485.055 340.307C485.055 373.83 504.374 396.273 535.908 396.273ZM501.888 330.648C503.024 313.673 515.027 298.545 534.203 298.545C552.385 298.545 564.033 312.182 564.033 330.648H501.888Z" fill="url(#paint0_linear_12_4)"/>
<path d="M737.541 321.273C737.541 273.688 707.996 246.557 669.43 246.557C630.652 246.557 601.32 273.688 601.32 321.273C601.32 368.645 630.652 395.989 669.43 395.989C678.521 395.989 687.115 394.497 694.928 391.514L706.646 405.932H735.339L714.53 379.795C728.734 367.082 737.541 347.196 737.541 321.273ZM658.777 343.432L677.385 368.006C674.899 368.503 672.2 368.787 669.43 368.787C647.058 368.787 632.499 352.097 632.499 321.273C632.499 290.449 647.058 273.759 669.43 273.759C691.732 273.759 706.362 290.449 706.362 321.273C706.362 337.111 702.456 349.256 695.709 357.281L684.913 343.432H658.777Z" fill="url(#paint1_linear_12_4)"/>
</g>
<defs>
<filter id="filter0_dd_12_4" x="747" y="-2" width="599" height="599" filterUnits="userSpaceOnUse" color-interpolation-filters="sRGB">
<feFlood flood-opacity="0" result="BackgroundImageFix"/>
<feColorMatrix in="SourceAlpha" type="matrix" values="0 0 0 0 0 0 0 0 0 0 0 0 0 0 0 0 0 0 127 0" result="hardAlpha"/>
<feMorphology radius="2" operator="erode" in="SourceAlpha" result="effect1_dropShadow_12_4"/>
<feOffset dy="4"/>
<feGaussianBlur stdDeviation="3"/>
<feColorMatrix type="matrix" values="0 0 0 0 0 0 0 0 0 0 0 0 0 0 0 0 0 0 0.05 0"/>
<feBlend mode="normal" in2="BackgroundImageFix" result="effect1_dropShadow_12_4"/>
<feColorMatrix in="SourceAlpha" type="matrix" values="0 0 0 0 0 0 0 0 0 0 0 0 0 0 0 0 0 0 127 0" result="hardAlpha"/>
<feMorphology radius="3" operator="erode" in="SourceAlpha" result="effect2_dropShadow_12_4"/>
<feOffset dy="10"/>
<feGaussianBlur stdDeviation="7.5"/>
<feColorMatrix type="matrix" values="0 0 0 0 0 0 0 0 0 0 0 0 0 0 0 0 0 0 0.1 0"/>
<feBlend mode="normal" in2="effect1_dropShadow_12_4" result="effect2_dropShadow_12_4"/>
<feBlend mode="normal" in="SourceGraphic" in2="effect2_dropShadow_12_4" result="shape"/>
</filter>
<filter id="filter1_dd_12_4" x="0.363647" y="244.557" width="749.178" height="212.352" filterUnits="userSpaceOnUse" color-interpolation-filters="sRGB">
<feFlood flood-opacity="0" result="BackgroundImageFix"/>
<feColorMatrix in="SourceAlpha" type="matrix" values="0 0 0 0 0 0 0 0 0 0 0 0 0 0 0 0 0 0 127 0" result="hardAlpha"/>
<feMorphology radius="2" operator="erode" in="SourceAlpha" result="effect1_dropShadow_12_4"/>
<feOffset dy="4"/>
<feGaussianBlur stdDeviation="3"/>
<feColorMatrix type="matrix" values="0 0 0 0 0 0 0 0 0 0 0 0 0 0 0 0 0 0 0.05 0"/>
<feBlend mode="normal" in2="BackgroundImageFix" result="effect1_dropShadow_12_4"/>
<feColorMatrix in="SourceAlpha" type="matrix" values="0 0 0 0 0 0 0 0 0 0 0 0 0 0 0 0 0 0 127 0" result="hardAlpha"/>
<feMorphology radius="3" operator="erode" in="SourceAlpha" result="effect2_dropShadow_12_4"/>
<feOffset dy="10"/>
<feGaussianBlur stdDeviation="7.5"/>
<feColorMatrix type="matrix" values="0 0 0 0 0 0 0 0 0 0 0 0 0 0 0 0 0 0 0.1 0"/>
<feBlend mode="normal" in2="effect1_dropShadow_12_4" result="effect2_dropShadow_12_4"/>
<feBlend mode="normal" in="SourceGraphic" in2="effect2_dropShadow_12_4" result="shape"/>
</filter>
<linearGradient id="paint0_linear_12_4" x1="374.5" y1="200" x2="374.5" y2="442" gradientUnits="userSpaceOnUse">
<stop stop-color="#2F4BC6"/>
<stop offset="1" stop-color="#2F4BC6" stop-opacity="0.75"/>
</linearGradient>
<linearGradient id="paint1_linear_12_4" x1="374.5" y1="200" x2="374.5" y2="442" gradientUnits="userSpaceOnUse">
<stop stop-color="#7CCF61"/>
<stop offset="0.546875" stop-color="#7CCF61" stop-opacity="0.75"/>
<stop offset="1" stop-color="#A5CF61" stop-opacity="0.75"/>
</linearGradient>
</defs>
</svg>
